<svg width="808" height="511" viewBox="0 0 808 511" fill="none" xmlns="http://www.w3.org/2000/svg">
<path d="M668 31.3772H471C455.812 31.3772 443.5 43.6414 443.5 58.77V144.435C443.5 159.563 455.812 171.827 471 171.827H668C683.188 171.827 695.5 159.563 695.5 144.435V58.77C695.5 43.6414 683.188 31.3772 668 31.3772Z" fill="white" stroke="black" stroke-width="5"/>
<path d="M512.843 236.175L482.7 166.036L542.579 165.864L512.843 236.175Z" fill="white"/>
<path d="M484.236 173.204L515.236 234.962" stroke="black" stroke-width="5"/>
<path d="M514.695 235.113L540.695 173.354" stroke="black" stroke-width="5"/>
<path fill-rule="evenodd" clip-rule="evenodd" d="M634 308.591C633.712 308.076 633.616 307.734 633.424 307.39C633.136 307.561 632.753 307.734 632.561 307.905C631.505 309.364 630.545 310.909 629.489 312.368C629.394 312.54 629.393 312.712 629.393 312.883C629.681 312.883 629.969 312.883 630.065 312.798C630.833 312.197 631.697 311.682 632.273 310.995C632.944 310.308 633.424 309.45 634 308.591ZM628.05 304.471C629.394 304.213 630.449 303.956 631.505 303.871C632.657 303.784 632.465 303.441 632.177 302.754C631.121 300.179 629.202 298.205 627.09 296.316C626.994 296.231 626.898 296.145 626.706 296.059C626.706 296.231 626.61 296.402 626.61 296.574C626.802 298.805 626.994 300.952 627.282 303.183C627.282 303.527 627.378 303.871 627.57 304.128C627.666 304.3 627.954 304.386 628.05 304.471ZM480.635 311.595C480.731 312.197 480.827 312.626 480.923 313.055C481.307 314.428 481.786 315.716 482.17 317.09C482.746 319.064 483.418 321.124 483.898 323.184C484.474 325.588 484.954 327.906 485.529 330.309C485.625 330.91 486.105 331.425 486.393 331.94C486.489 331.253 486.777 330.566 486.585 329.966C485.529 325.158 484.282 320.351 483.13 315.458C482.842 314.171 482.554 312.883 482.17 311.595C482.074 311.253 481.499 310.909 481.115 310.651C481.019 310.995 480.827 311.424 480.635 311.595ZM570.85 351.941C570.754 351.683 570.658 351.426 570.562 351.082C570.082 348.85 569.602 346.618 569.218 344.386C568.642 341.038 568.162 337.691 567.491 334.429C567.395 333.914 566.915 333.399 566.723 332.884C566.531 333.313 566.243 333.828 566.051 334.258C565.955 334.515 565.859 334.686 565.859 334.944C564.803 338.12 563.844 341.296 562.788 344.472C562.212 346.103 561.732 347.734 561.156 349.365C560.965 349.966 560.965 350.396 561.636 350.653C564.132 351.511 566.627 352.456 569.218 353.313C570.178 353.571 570.946 352.885 570.85 351.941ZM613.942 325.673C616.341 325.33 618.644 324.987 620.852 324.643C621.236 324.558 621.62 324.3 621.716 323.957C622.675 321.896 623.923 319.922 624.595 317.776C625.555 314.343 627.186 311.253 629.202 308.249C629.393 307.905 629.489 307.476 629.681 307.132C629.202 307.132 628.722 306.961 628.242 307.132C626.418 307.561 624.595 308.076 622.771 308.677C622.196 308.849 621.716 309.364 621.428 309.794C619.796 312.54 618.357 315.373 616.821 318.206C615.669 320.266 614.518 322.24 613.366 324.3C613.174 324.643 613.078 324.987 612.886 325.244C613.27 325.416 613.654 325.588 613.942 325.673ZM618.069 269.448C617.109 269.621 616.053 269.706 615.093 269.964C610.103 271.251 605.112 272.539 600.122 273.913C598.874 274.256 597.626 274.685 596.379 275.029C593.212 275.887 589.948 276.745 586.781 277.689C584.958 278.204 583.134 278.977 581.311 279.663C578.24 280.78 575.073 281.81 572.001 283.011C570.178 283.699 570.274 283.87 570.658 285.586C570.85 286.359 571.33 286.445 572.001 286.188C572.577 286.016 573.057 285.673 573.537 285.586C576.8 284.642 580.063 283.784 583.23 282.84C586.781 281.723 590.332 280.522 593.787 279.406C598.01 278.033 602.233 276.745 606.36 275.286C610.295 273.913 614.134 272.454 618.261 271.681C619.124 271.509 619.988 271.08 620.756 270.736C621.044 270.651 621.236 270.393 621.428 270.221C621.14 270.05 620.948 269.878 620.66 269.792C619.892 269.621 619.028 269.535 618.069 269.448ZM483.226 330.309C482.938 328.763 482.554 326.789 482.074 324.815C481.499 322.325 480.731 319.836 480.155 317.347C479.675 315.287 479.195 313.313 478.715 311.253C478.523 310.394 478.044 309.621 476.988 309.364C474.972 308.677 473.053 307.991 471.037 307.39C468.446 306.617 468.158 306.875 468.83 309.279C468.926 309.536 469.022 309.794 469.118 310.05C469.214 310.651 469.31 311.253 469.502 311.768C469.694 312.626 469.694 313.742 470.27 314.171C471.325 314.943 471.037 315.631 470.846 316.403C470.75 317.003 470.558 317.605 470.654 318.12C471.229 320.351 471.997 322.583 472.669 324.815C473.053 325.931 473.437 327.047 473.821 328.248C474.205 329.365 474.972 330.137 476.316 330.395C478.139 330.738 480.059 331.167 481.882 331.511C483.226 331.94 483.322 331.854 483.226 330.309ZM576.128 316.488C576.32 317.691 576.608 319.494 576.992 321.21C577.472 323.528 578.144 325.845 578.72 328.163C579.103 329.708 579.391 331.339 579.967 332.884C580.543 334.429 580.735 334.343 582.463 333.828C583.134 333.656 583.806 333.485 584.382 333.228C587.357 331.94 590.332 330.481 593.308 329.278C598.49 327.218 603.769 325.33 608.855 323.184C610.583 322.498 612.214 321.639 613.174 320.009C613.654 319.236 613.462 319.064 612.502 319.064C610.295 319.064 608.183 319.064 605.976 318.978C604.248 318.892 602.617 318.806 600.889 318.721C596.283 318.377 591.58 318.206 586.973 317.605C583.71 317.176 580.543 316.06 577.28 315.201C576.128 314.772 576.032 314.772 576.128 316.488ZM495.031 242.067C492.535 243.011 489.656 243.011 487.641 244.813C487.449 244.985 487.257 245.071 487.065 245.242C487.353 245.413 487.545 245.586 487.833 245.671C489.752 246.53 491.864 246.959 493.687 247.989C495.415 249.019 497.334 249.62 499.254 250.306C499.829 250.564 500.597 250.564 501.173 250.821C504.148 251.852 507.028 252.968 510.003 254.084C512.498 255.028 515.089 255.886 517.585 256.916C522.671 259.062 527.758 261.38 533.228 262.754C535.819 263.354 538.219 264.556 540.714 265.5C542.154 266.015 543.689 266.359 545.033 266.959C549.352 268.848 553.575 270.736 558.181 272.024C560.293 272.625 562.404 272.454 564.42 271.852C565.091 271.681 565.571 271.08 566.147 270.736C565.571 270.221 565.187 269.535 564.516 269.277C561.636 268.076 558.661 266.873 555.59 265.844C552.807 264.899 550.024 264.041 547.24 263.183C543.593 261.981 540.042 260.779 536.395 259.577C533.228 258.461 530.061 257.26 526.798 256.058C524.399 255.114 521.903 254.255 519.504 253.225C515.665 251.594 512.018 249.878 508.179 248.332C504.724 246.959 501.461 245.328 498.294 243.526C497.334 242.924 496.182 242.582 495.031 242.067ZM562.596 289.707C563.172 293.141 563.844 296.574 564.42 300.008C564.995 303.698 565.475 307.39 566.051 310.995C566.243 312.368 566.531 313.742 566.819 315.029C566.819 315.201 567.011 315.287 567.107 315.458C567.203 315.287 567.395 315.201 567.395 315.029C567.491 313.742 567.587 312.454 567.587 311.167C567.587 310.308 567.971 309.621 569.026 309.621C570.178 309.621 570.274 310.394 570.37 311.253C570.562 313.398 570.082 315.544 569.41 317.518C568.258 321.038 568.258 324.558 568.834 328.077C569.41 331.768 570.466 335.459 571.138 339.151C571.713 342.326 572.097 345.503 572.577 348.593C572.865 350.138 573.153 351.597 573.537 353.056C573.633 353.657 574.017 353.742 574.689 353.485C576.704 352.627 578.816 351.941 580.831 351.168C581.503 350.911 581.983 350.653 581.695 349.88C581.311 348.593 581.023 347.305 580.735 346.018C579.391 341.211 578.048 336.403 576.8 331.596C575.265 325.073 573.249 318.635 572.577 311.939C572.097 307.39 570.946 302.926 570.082 298.463C569.506 295.286 568.93 292.111 568.45 288.848C567.683 284.214 566.915 279.663 566.339 275.029C566.243 273.999 565.763 273.741 564.803 274.084C563.748 274.341 562.788 274.685 561.828 274.943C560.965 275.2 560.677 275.629 560.773 276.402C560.964 277.689 562.02 286.445 562.596 289.707ZM608.279 316.746C611.159 317.003 613.462 315.716 615.957 314.858C616.053 314.772 616.245 314.686 616.245 314.601C617.205 312.798 618.644 310.995 619.028 309.021C619.412 307.476 620.18 307.132 621.62 306.875C622.004 306.789 622.387 306.789 622.675 306.617C623.251 306.274 624.019 305.845 624.115 305.33C624.307 304.386 624.115 303.356 624.115 302.411C624.019 298.549 623.923 294.6 623.923 290.737C623.923 288.248 623.923 285.673 624.019 283.183C624.019 282.153 624.211 281.208 624.211 280.178C624.307 277.947 624.403 275.715 624.499 273.484C624.499 272.711 624.211 272.281 623.347 272.367C622.771 272.454 622.195 272.454 621.62 272.625C618.357 273.484 615.093 274.256 611.926 275.286C607.608 276.659 603.385 278.204 599.162 279.663C593.307 281.638 587.453 283.526 581.599 285.501C578.72 286.445 575.84 287.475 572.961 288.419C572.097 288.677 571.713 289.106 571.809 290.05C572.001 291.853 572.097 293.741 572.385 295.63C572.673 297.433 573.249 299.235 573.633 301.038C574.305 304.128 574.881 307.218 575.648 310.308C575.84 310.995 576.512 311.768 577.184 312.11C580.927 313.999 585.054 315.029 589.277 315.544C594.651 316.146 607.416 316.746 608.279 316.746ZM486.489 260.779C486.969 262.925 487.641 265.157 488.121 267.303C488.505 269.277 488.505 271.337 488.984 273.226C489.944 276.745 490.232 280.436 491.48 283.956C492.919 287.99 493.495 292.282 494.647 296.402C495.895 300.952 497.334 305.501 498.678 310.05C499.733 313.656 500.789 317.176 501.845 320.781C502.133 321.81 503.956 325.502 505.012 325.931C505.492 326.103 505.972 326.274 506.452 326.532C509.139 327.562 511.826 328.592 514.417 329.794C516.433 330.652 518.256 331.769 520.176 332.798C521.999 333.743 523.727 334.6 525.55 335.459C527.662 336.489 529.773 337.605 531.981 338.549C533.324 339.151 534.86 339.493 536.299 340.095C539.754 341.553 543.209 343.012 546.664 344.472C550.215 345.931 553.862 347.133 557.413 348.593C558.181 348.85 558.469 348.85 558.757 348.163C559.237 346.962 559.717 345.76 560.101 344.558C561.252 340.781 562.212 337.004 563.556 333.313C564.707 330.309 565.187 327.133 565.091 324.043C564.995 320.094 564.324 316.059 563.748 312.11C563.076 307.734 562.02 303.527 561.348 299.149C560.773 295.372 560.389 291.509 559.813 287.647C559.429 285.071 558.853 282.496 558.373 279.921C558.181 278.462 558.181 277.003 557.893 275.544C557.797 275.029 557.413 274.428 556.934 274.17C554.438 273.054 551.943 271.939 549.352 270.994C546.281 269.792 543.209 268.762 540.042 267.646C537.355 266.702 534.668 265.758 531.981 264.899C529.869 264.213 527.662 263.612 525.55 262.839C522.671 261.724 519.888 260.35 517.009 259.234C514.13 258.118 511.154 257.173 508.275 256.143C505.972 255.286 503.764 254.427 501.461 253.569C498.87 252.624 496.278 251.68 493.783 250.65C490.904 249.449 488.025 248.161 485.146 246.873C484.666 246.616 484.378 246.701 484.282 247.216C484.186 247.646 484.09 248.161 484.186 248.59C484.762 250.306 485.913 258.547 486.489 260.779ZM619.604 347.82C618.165 348.078 617.685 347.734 617.301 346.446C616.821 344.815 616.245 343.27 615.765 341.64C614.518 337.691 613.27 333.743 611.926 329.88C611.734 329.278 611.159 328.678 610.775 328.077C610.487 327.562 610.295 327.047 610.295 326.532C610.199 325.416 609.911 325.158 608.855 325.588C606.168 326.618 603.481 327.648 600.889 328.85C600.314 329.107 599.834 329.708 599.546 330.223C598.394 332.626 597.434 335.115 596.379 337.519C595.515 339.408 595.515 341.125 597.338 342.584C598.97 343.957 603.769 347.305 604.536 347.648C605.016 347.905 605.592 348.249 605.592 348.678C605.688 349.365 605.496 350.052 605.112 350.653C605.016 350.824 603.865 350.738 603.385 350.481C601.849 349.537 600.506 348.42 599.066 347.39C597.05 345.845 595.035 344.215 593.116 342.584C592.828 342.326 592.636 341.982 592.636 341.64C592.636 341.211 592.732 340.781 592.924 340.352C594.171 337.348 595.419 334.429 596.763 331.425C596.859 331.167 596.954 330.824 597.05 330.481C596.667 330.566 596.283 330.481 595.899 330.652C591.868 332.369 587.741 334.171 583.71 335.974C582.942 336.318 581.983 336.575 581.695 337.09C581.407 337.605 581.983 338.463 582.079 339.151C582.654 341.468 583.23 343.7 583.806 346.018C584.094 347.048 584.67 348.078 584.958 349.108C585.534 350.996 585.15 351.941 583.134 352.885C580.543 354.086 577.952 355.287 575.36 356.318C574.113 356.833 572.673 357.263 571.234 356.49C571.042 356.404 570.85 356.318 570.658 356.318C567.203 356.232 564.42 354.601 561.444 353.4C560.389 352.97 559.717 352.97 559.141 353.915C558.949 354.257 558.181 354.43 557.701 354.344C557.413 354.257 557.126 353.657 557.126 353.227C557.126 350.996 557.126 350.996 554.822 350.309C554.342 350.138 553.958 349.88 553.575 349.708C553.095 349.537 552.519 349.451 551.943 349.279C552.039 349.708 552.135 350.223 552.327 350.653C553.095 352.283 554.054 353.829 554.822 355.46C555.878 357.434 556.838 359.408 557.989 361.297C559.813 364.387 561.828 367.391 563.748 370.481C564.516 371.769 565.379 372.971 565.763 374.344C566.051 375.288 565.859 376.576 565.475 377.52C564.324 380.181 563.076 382.756 561.828 385.332C561.636 385.674 561.636 386.104 561.348 386.362C561.06 386.619 560.485 386.791 560.101 386.705C559.717 386.619 559.333 386.104 559.333 385.761C559.333 385.246 559.717 384.731 559.909 384.215C560.773 381.469 561.828 378.636 562.5 375.803C562.692 374.773 562.116 373.486 561.54 372.455C559.429 368.593 557.126 364.902 555.014 361.039C553.862 359.065 552.999 357.005 551.847 355.03C550.407 352.541 548.776 350.052 547.24 347.563C547.048 347.305 546.664 347.048 546.281 346.875C541.674 344.987 537.067 343.099 532.556 341.211C530.061 340.181 527.566 339.236 525.07 338.12C524.303 337.777 523.823 337.777 523.439 338.549C521.328 342.841 519.12 347.133 517.105 351.511C515.569 354.945 514.321 358.464 512.978 361.983C512.018 364.558 511.058 367.134 510.099 369.709C510.003 369.88 510.003 370.053 510.003 370.31C509.811 372.542 509.235 372.628 507.027 371.598C505.396 370.825 503.572 370.31 501.845 369.795C500.789 369.451 500.213 368.85 500.501 367.992C500.789 367.22 501.557 367.047 502.613 367.391C503.86 367.82 505.204 368.25 506.452 368.765C507.219 369.022 507.603 368.936 507.891 368.25C509.427 364.558 510.866 360.868 512.402 357.176C513.554 354.43 514.609 351.683 515.761 349.022C517.393 345.33 519.12 341.726 520.848 338.12C521.519 336.747 521.328 336.145 519.888 335.373C516.721 333.743 513.65 332.025 510.387 330.566C507.891 329.451 505.204 328.592 502.613 327.733C501.077 327.218 500.213 326.446 500.213 324.815C500.213 323.355 499.733 321.81 499.35 320.351C498.774 318.12 498.102 315.802 497.334 313.57C496.087 309.708 494.743 305.845 493.591 301.982C493.111 300.523 492.919 298.978 492.631 297.519C492.248 295.716 491.864 295.63 490.328 296.746C488.409 298.119 486.489 299.578 484.474 300.952C482.554 302.325 480.635 303.613 478.715 304.986C478.427 305.243 478.139 305.501 477.756 305.758C477.18 306.274 477.084 306.703 478.044 306.961C479.003 307.304 479.867 307.905 480.923 308.162C483.034 308.677 483.994 309.794 484.474 311.768C485.242 315.373 486.297 318.892 487.161 322.498C487.641 324.558 487.929 326.618 488.313 328.678C488.601 330.051 488.793 331.511 489.08 332.884C489.272 333.828 488.889 334.171 487.929 334.429C486.393 334.773 485.05 334.944 483.418 334.515C480.539 333.656 477.564 333.055 474.684 332.455C473.149 332.111 472.093 331.596 472.093 329.88C472.093 328.763 471.421 327.562 471.037 326.446C470.27 323.957 469.598 321.381 468.926 318.892C468.638 317.948 468.254 317.261 467.103 317.003C466.431 316.832 465.759 316.575 465.279 316.146C464.223 315.201 464.127 313.913 465.183 312.969C466.719 311.595 466.911 310.05 466.431 308.249C466.143 307.218 466.047 306.188 465.951 305.158C465.855 303.871 466.431 303.527 467.774 303.871C469.502 304.386 471.133 304.986 472.861 305.501C473.245 305.587 473.725 305.673 474.013 305.501C476.508 303.784 479.003 301.982 481.499 300.265C483.802 298.72 486.105 297.261 488.409 295.716C489.272 295.115 490.136 294.428 490.808 293.656C491.096 293.312 491.096 292.711 490.904 292.196C489.944 288.248 488.889 284.299 487.929 280.351C486.873 275.973 486.009 271.681 485.05 267.303C484.282 263.612 483.514 259.921 482.842 256.229C482.362 253.312 482.074 250.306 481.595 247.302C481.403 246.015 481.786 245.071 483.226 244.47C486.873 242.924 490.616 241.379 494.263 240.006C494.935 239.749 496.086 240.006 496.758 240.349C498.294 241.208 499.638 242.324 501.077 243.182C502.325 243.869 503.86 244.298 505.204 244.985C507.028 245.843 508.755 246.701 510.483 247.56C510.962 247.817 511.346 248.075 511.826 248.246C514.129 249.105 516.529 249.878 518.832 250.736C521.711 251.852 524.591 253.225 527.47 254.255C532.94 256.23 538.507 258.118 544.073 260.006C547.432 261.122 550.695 262.239 554.054 263.354C555.878 263.955 557.701 264.642 559.525 265.329C562.212 266.359 564.611 267.818 566.915 269.535C568.163 270.479 568.546 271.681 568.738 273.054C569.026 275.544 569.41 278.033 569.698 280.522C569.794 281.123 569.986 281.381 570.754 281.123C574.401 279.921 578.048 278.806 581.695 277.689C584.958 276.659 588.221 275.544 591.58 274.599C596.283 273.311 601.081 272.281 605.784 270.994C609.239 270.136 612.502 269.02 615.957 268.076C618.069 267.474 620.18 267.646 622.1 268.591C623.251 269.191 624.499 269.706 625.651 270.221C626.61 270.651 626.994 271.251 626.898 272.11C626.706 273.913 626.61 275.715 626.514 277.518C626.322 280.951 626.13 290.823 626.13 290.823C626.13 290.823 630.929 296.66 632.561 298.463C635.248 301.467 636.687 304.986 636.304 308.764C636.112 310.738 635.056 312.625 633.04 313.828C631.025 315.029 629.01 316.146 627.09 317.433C626.61 317.776 626.13 318.377 625.938 318.892C624.979 321.295 624.211 323.699 623.251 326.017C623.155 326.274 622.771 326.532 622.387 326.618C619.988 327.047 617.589 327.476 615.189 327.819C614.038 327.991 613.75 328.506 613.942 329.365C614.902 332.798 615.477 336.403 617.301 339.579C617.973 340.781 618.453 342.155 618.932 343.442C619.22 344.3 619.796 344.815 620.852 344.815C623.155 344.815 625.459 345.073 627.762 344.3C628.818 343.957 629.489 344.386 629.777 345.159C630.161 346.103 629.681 346.704 628.722 346.79C627.666 347.048 621.332 347.477 619.604 347.82Z" fill="#181715"/>
<path fill-rule="evenodd" clip-rule="evenodd" d="M412.973 310.824C412.973 311.51 413.453 311.768 414.605 311.424C415.661 311.08 416.621 310.652 417.676 310.394C418.636 310.136 418.924 309.621 418.348 308.849C417.004 306.617 416.045 304.3 415.565 301.81C415.565 301.638 415.469 301.553 415.373 301.467C415.277 301.553 415.085 301.724 414.989 301.81C414.509 303.441 414.029 305.072 413.549 306.789C413.357 307.905 413.261 309.106 412.973 310.824ZM395.794 321.639C395.986 321.554 396.082 321.554 396.178 321.554C398.673 320.695 401.073 319.836 403.568 318.978C409.039 317.09 414.413 315.201 419.884 313.313C423.435 312.11 426.89 310.738 430.345 309.45C430.633 309.364 430.825 308.935 431.112 308.677C430.729 308.591 430.249 308.42 429.961 308.591C428.521 309.106 427.082 309.708 425.546 310.223C421.899 311.51 418.156 312.712 414.509 313.913C412.494 314.601 410.574 315.287 408.559 315.973C406.255 316.746 404.048 317.518 401.745 318.377C399.729 319.15 397.714 320.009 395.698 320.866C395.506 320.952 395.41 321.21 395.41 321.381C395.41 321.468 395.698 321.554 395.794 321.639ZM372.953 354.086C373.241 354.43 373.432 354.945 373.528 354.859C374.008 354.687 374.584 354.516 374.776 354.258C375.928 352.37 376.984 350.396 378.135 348.421C379.191 346.533 380.055 344.472 381.398 342.756C385.621 337.004 389.556 331.081 392.723 324.729C392.915 324.3 393.107 323.87 393.107 323.355C393.107 323.098 392.819 322.84 392.723 322.583C392.435 322.755 392.147 322.755 391.955 323.013C391.188 324.043 390.42 325.073 389.844 326.188C389.076 327.733 388.692 329.365 387.828 330.824C386.581 332.97 385.237 335.03 383.798 337.176C381.302 341.038 378.903 344.988 375.832 348.507C374.488 350.138 373.912 352.198 372.953 354.086ZM357.117 273.054C357.789 272.969 358.557 273.054 359.132 272.882C362.396 271.939 365.755 270.994 368.922 269.792C374.584 267.646 380.151 265.243 385.813 262.925C389.94 261.294 393.971 259.491 398.194 258.032C404.624 255.714 411.054 253.569 417.484 251.337C419.5 250.65 421.515 249.791 423.435 249.019C423.819 248.847 424.106 248.419 424.394 248.161C424.01 247.989 423.723 247.817 423.339 247.731C421.995 247.302 420.747 246.873 419.404 246.616C418.06 246.358 416.429 245.671 415.277 246.101C411.438 247.389 407.791 249.105 404.144 250.65C398.386 253.054 392.531 255.372 386.773 257.775C382.55 259.491 378.423 261.294 374.2 263.097C368.058 265.672 362.012 268.247 355.869 270.908C354.814 271.337 353.758 271.939 352.702 272.454C354.046 272.711 355.39 272.882 356.733 273.14C356.925 273.14 357.021 273.054 357.117 273.054ZM321.895 355.803C322.087 356.146 322.183 356.49 322.375 356.747C323.526 358.464 325.542 359.237 327.173 360.353C327.269 360.438 328.037 360.18 328.133 359.923C328.997 357.778 329.669 355.545 330.436 353.4C332.452 347.82 334.467 342.241 336.387 336.661C337.634 333.313 338.786 329.88 339.938 326.446C340.322 325.244 340.61 323.957 341.185 322.755C341.569 321.896 341.665 321.296 341.185 320.437C340.322 319.064 339.65 317.605 338.978 316.146C338.594 315.287 338.594 314.428 339.458 313.828C339.746 313.57 340.322 313.398 340.61 313.484C340.993 313.656 341.185 314.085 341.377 314.428C341.665 315.029 341.761 315.716 341.953 316.317C342.049 316.488 342.241 316.575 342.337 316.746C342.433 316.575 342.529 316.488 342.625 316.317C342.913 315.373 343.297 314.428 343.489 313.398C344.832 307.219 346.08 301.123 348.287 295.115C349.727 291.166 350.879 287.132 352.126 283.097C352.414 282.239 352.606 281.466 352.798 280.608C353.182 279.321 353.47 278.033 354.046 276.832C354.622 275.544 354.526 275.286 352.894 275.2C352.414 275.2 351.934 275.114 351.455 275.029C349.247 274.599 349.055 274.599 348.287 276.488C347.328 278.806 346.464 281.123 345.696 283.526C343.969 288.419 342.241 293.312 340.514 298.205C338.594 303.613 336.579 309.021 334.755 314.514C333.508 318.12 332.548 321.725 331.396 325.33C330.34 328.678 329.189 331.94 328.133 335.288C326.502 340.095 324.966 344.815 323.43 349.623C322.759 351.683 322.375 353.743 321.895 355.803ZM431.208 311.939C431.016 311.853 430.825 311.595 430.633 311.682C429.385 312.025 428.233 312.368 427.082 312.798C425.546 313.398 424.01 314.171 422.475 314.686C418.636 315.973 414.701 317.261 410.766 318.463C406.735 319.751 402.608 320.952 398.577 322.24C397.522 322.583 396.37 323.184 395.698 323.957C394.355 325.502 393.299 327.218 392.243 328.85C391.571 329.794 391.092 330.91 390.516 331.854C388.212 335.63 385.909 339.322 383.606 343.099C382.646 344.644 381.782 346.189 380.918 347.734C379.767 349.537 378.615 351.339 377.463 353.228C377.367 353.4 377.367 353.657 377.271 353.915C377.559 353.915 377.751 354 378.039 353.915C378.903 353.743 379.767 353.486 380.63 353.228C382.934 352.37 385.237 351.426 387.541 350.653C391.284 349.279 395.218 348.163 398.961 346.618C402.608 345.159 406.063 343.356 409.518 341.554C410.478 341.038 411.342 340.266 412.014 339.408C413.453 337.777 414.701 336.145 415.949 334.429C417.484 332.369 418.828 330.395 420.267 328.248C420.939 327.304 421.419 326.188 421.995 325.244C422.763 324.043 423.531 322.84 424.298 321.639C424.97 320.437 424.874 320.524 423.531 319.922C422.955 319.665 422.475 318.978 422.379 318.463C422.283 317.691 422.955 317.433 423.723 317.433C424.106 317.433 424.49 317.519 424.874 317.347C426.122 316.832 427.561 316.575 428.521 315.716C429.577 314.772 430.249 313.313 431.208 311.939ZM331.204 362.498C331.684 362.413 332.164 362.327 332.548 362.241C333.891 361.812 335.139 361.383 336.483 360.953C339.554 359.838 342.625 358.722 345.696 357.691C348.575 356.661 351.455 355.717 354.238 354.601C356.445 353.743 358.749 352.885 360.956 351.941C363.259 350.996 365.467 349.88 367.77 348.936C369.69 348.163 371.705 347.563 373.72 346.875C374.968 346.446 375.928 345.931 376.6 344.73C377.175 343.7 377.943 342.67 378.615 341.64C379.191 340.781 379.671 339.923 380.247 339.064C381.206 337.519 382.262 336.06 383.222 334.515C384.373 332.798 385.429 331.081 386.581 329.365C386.677 329.193 386.677 328.936 386.773 328.678C386.485 328.678 386.197 328.592 385.909 328.678C383.702 328.936 381.494 329.365 379.287 329.451C375.832 329.622 372.281 329.708 368.73 329.794C365.467 329.794 358.941 329.278 353.758 327.733C348.959 326.274 345.312 323.87 344.353 323.355C343.777 323.098 343.585 323.013 343.393 323.699C343.009 324.987 342.721 326.274 342.241 327.562C340.802 331.511 339.362 335.373 337.922 339.322C336.291 343.7 334.659 348.078 333.124 352.456C332.068 355.374 331.3 358.378 330.34 361.383C329.957 362.156 330.053 362.584 331.204 362.498ZM383.414 326.876C386.197 326.361 388.692 325.33 389.652 322.84C390.42 320.866 391.763 319.922 393.779 319.236C398.961 317.347 404.048 315.287 409.135 313.313C409.518 313.141 409.902 312.712 409.998 312.283C410.19 311.338 410.19 310.309 410.478 309.364C411.726 304.471 412.974 299.664 414.221 294.771C415.085 291.252 415.853 287.647 416.812 284.127C417.868 280.093 419.02 276.144 420.172 272.11C421.227 268.161 422.475 264.299 423.435 260.35C424.106 257.431 425.354 254.771 426.314 251.938C426.41 251.594 426.41 251.079 426.41 250.736C425.93 250.736 425.354 250.736 424.874 250.822C424.682 250.822 424.586 250.908 424.394 250.994C419.404 252.797 414.509 254.684 409.518 256.487C406.351 257.603 402.992 258.633 399.825 259.835C395.41 261.466 390.996 263.183 386.677 264.899C381.302 267.046 375.928 269.191 370.553 271.337C367.194 272.625 363.739 273.741 360.38 275.114C358.749 275.801 356.733 276.059 356.349 278.204C356.061 280.093 355.198 281.981 354.622 283.784C353.374 287.475 351.934 291.081 350.783 294.857C349.631 298.72 348.575 302.668 347.52 306.617C346.56 310.05 345.6 313.57 344.736 317.003C344.449 318.034 344.065 319.407 344.545 320.18C345.312 321.296 346.656 322.325 348.096 322.927C350.111 323.87 352.318 324.385 354.43 325.158C356.541 325.931 363.451 327.391 369.498 327.648C376.312 327.991 382.166 327.047 383.414 326.876ZM387.733 378.465C388.308 374.431 386.965 370.653 386.101 366.79C385.429 363.614 384.949 360.438 384.181 357.263C383.414 353.915 384.373 354.258 380.535 355.46C378.519 356.06 376.6 356.919 374.68 357.605C373.432 358.12 372.665 357.263 371.897 356.747C371.129 356.232 370.553 355.631 370.937 354.687C371.417 353.4 371.897 352.198 372.473 350.911C372.761 350.223 372.377 350.138 371.801 350.309C371.225 350.481 370.649 350.738 369.977 350.911C368.634 351.253 367.29 351.511 366.043 351.855C365.275 352.026 364.507 352.283 363.835 352.627C362.108 353.4 360.476 354.258 358.845 355.116C358.461 355.288 358.077 355.46 357.885 355.717C356.253 357.863 354.622 359.923 353.086 362.069C351.167 364.731 349.343 367.391 347.52 370.053C347.136 370.653 346.656 371.254 346.176 371.855C345.12 373.314 344.065 374.773 342.913 376.232C341.569 378.035 340.322 379.924 338.882 381.726C337.634 383.272 337.538 384.473 338.498 386.104C339.17 387.306 339.746 388.507 340.418 389.71C340.802 390.482 341.281 391.169 341.761 391.941C342.049 392.456 342.433 392.971 342.625 393.573C342.817 394.259 343.009 395.203 341.953 395.375C341.089 395.547 340.418 394.945 340.13 394.173C339.458 392.456 338.786 390.825 337.922 389.195C337.155 387.735 336.195 386.362 335.331 384.903C334.467 383.615 334.755 383.014 336.003 381.898C337.059 380.954 337.922 379.752 338.786 378.636C341.185 375.374 343.585 372.113 345.984 368.85C346.944 367.563 347.712 366.104 348.671 364.731C350.303 362.413 351.934 360.18 353.566 357.863C353.758 357.605 353.854 357.176 353.95 356.919C353.566 357.005 353.278 357.09 352.894 357.176C349.247 358.464 345.6 359.838 341.953 361.125C339.362 362.069 336.867 363.013 334.275 363.786C332.452 364.301 330.532 364.473 328.613 363.357C325.638 361.64 322.375 360.524 319.879 358.12C318.728 357.09 318.824 356.232 319.208 355.116C320.071 352.541 320.935 349.966 321.799 347.39C322.663 344.558 323.43 341.811 324.39 338.978C325.254 336.403 326.502 333.914 327.365 331.339C328.421 328.163 329.189 324.901 330.148 321.725C331.012 318.978 331.876 316.231 332.836 313.57C333.891 310.394 334.851 307.304 336.003 304.128C336.963 301.467 338.114 298.978 339.074 296.316C339.842 294.171 340.418 292.025 341.089 289.878C341.857 287.475 342.721 285.071 343.489 282.668C344.353 280.178 345.216 277.689 346.176 275.2C346.752 273.826 347.232 272.367 348.767 271.509C349.727 270.994 350.783 270.651 351.743 270.221C356.253 268.333 360.764 266.359 365.275 264.557C367.482 263.612 369.786 262.925 371.993 261.981C374.584 260.951 377.079 259.749 379.575 258.719C383.126 257.173 386.773 255.714 390.324 254.169C393.971 252.624 397.522 250.994 401.169 249.449C402.896 248.676 404.72 248.075 406.543 247.302C408.367 246.53 410.19 245.586 412.11 244.813C413.837 244.127 415.661 243.268 417.484 243.097C418.924 242.924 420.555 243.612 422.091 244.041C424.394 244.813 426.602 245.671 428.905 246.444C429.961 246.787 430.345 247.388 430.057 248.332C429.673 249.62 429.193 250.994 428.713 252.281C427.945 254.513 427.274 256.745 426.602 258.976C425.738 261.809 424.778 264.642 424.01 267.474C421.995 274.857 419.98 282.153 418.156 289.535C417.676 291.338 418.06 293.312 417.676 295.201C417.1 298.978 418.732 302.326 420.172 305.673C421.323 308.334 422.763 308.677 425.642 307.39C427.178 306.703 428.809 306.102 430.441 305.416C431.304 305.072 431.88 305.416 432.36 306.016C433.224 307.218 434.088 308.42 434.855 309.708C435.047 310.051 434.951 310.651 434.663 310.995C433.896 312.197 433.032 313.398 432.072 314.601C431.304 315.544 430.441 316.403 430.633 317.776C430.633 318.206 430.153 318.806 429.769 318.978C428.137 319.579 427.657 320.866 426.794 322.068C423.435 326.876 420.939 332.111 417.004 336.575C415.661 338.034 414.797 339.837 413.453 341.296C412.494 342.326 411.15 343.442 409.71 343.871C406.255 344.901 403.184 346.618 399.921 347.992C396.082 349.623 392.147 350.996 388.212 352.456C387.637 352.627 387.061 352.798 386.581 353.056C386.293 353.228 386.005 353.657 386.101 354C387.157 359.838 388.308 365.589 389.46 371.425C389.844 373.228 390.132 374.946 390.516 376.747C390.612 377.177 390.996 377.52 391.284 377.864C393.971 380.01 397.33 381.298 400.497 382.67C400.881 382.843 401.361 383.185 401.361 383.443C401.457 384.044 401.457 384.817 401.169 385.246C400.689 385.847 399.921 385.418 399.345 384.988C396.466 382.757 392.915 381.555 389.364 380.353C388.116 380.01 387.733 379.495 387.733 378.465Z" fill="#181715"/>
<path fill-rule="evenodd" clip-rule="evenodd" d="M730.07 262.153C731.797 261.981 734.772 261.724 736.5 261.551C738.035 261.38 735.348 260.694 735.252 260.694C734.772 260.521 731.893 259.148 731.413 259.148C730.933 259.148 721.624 260.521 710.203 261.895C696.479 263.44 680.355 265.072 679.876 265.329C680.259 265.5 681.027 266.102 682.179 266.444C683.331 266.788 697.631 265.329 700.99 264.985C704.829 264.556 724.311 262.754 730.07 262.153ZM680.163 269.106C680.163 268.848 680.259 268.505 680.163 268.247C679.972 267.818 678.532 267.561 678.436 267.903C677.956 269.878 677.476 271.852 677.188 273.913C676.42 280.866 675.845 287.819 674.981 294.771C674.501 298.376 674.885 301.638 677.764 304.386C677.956 304.557 678.244 304.643 678.436 304.815C678.532 304.557 678.628 304.386 678.628 304.128C678.532 302.926 678.34 301.724 678.244 300.608C678.052 298.119 678.436 295.458 677.092 293.141C676.9 292.797 676.804 292.368 676.804 292.024C676.804 291.166 676.804 290.308 677.764 289.793C678.436 289.449 678.82 289.02 678.82 288.248C678.82 287.561 679.012 286.96 679.012 286.274C679.396 280.608 680.067 269.106 680.163 269.106ZM713.658 301.638C715.098 301.467 716.441 299.579 716.057 298.205C715.674 296.574 715.77 296.402 717.593 295.887C717.881 295.801 718.265 295.63 718.457 295.372C720.088 293.483 721.624 291.596 723.16 289.707C724.023 288.677 723.831 288.248 722.392 287.904C720.952 287.475 719.417 287.132 717.977 286.874C717.497 286.789 716.825 287.046 716.441 287.304C714.81 288.763 713.178 290.308 711.643 291.853C711.451 292.024 711.355 292.368 711.163 292.54C711.451 292.453 711.739 292.453 711.931 292.282C712.698 291.767 713.178 292.111 713.466 292.626C713.946 293.398 713.754 294.085 712.794 294.514C711.547 295.115 710.299 295.544 709.051 296.231C708.284 296.66 707.612 297.261 707.228 297.948C707.036 298.291 707.324 299.235 707.612 299.407C709.723 300.265 711.739 300.952 713.658 301.638ZM681.027 306.875C681.027 307.819 681.507 308.42 682.659 308.334C686.978 308.162 691.296 307.991 695.711 307.905C698.782 307.819 701.853 307.819 704.925 307.734C705.5 307.734 706.076 307.734 706.652 307.647C710.011 307.304 713.274 306.875 716.633 306.617C718.457 306.446 734.676 305.845 734.676 305.243C734.868 301.295 734.868 297.346 734.964 293.483C734.964 292.626 734.58 292.797 734.004 293.141C732.085 294.256 730.07 295.372 728.054 296.489C727.19 297.004 726.231 297.604 725.271 297.861C723.639 298.291 721.816 298.549 720.088 298.806C719.225 298.978 718.649 299.235 718.361 300.008C717.977 300.952 717.401 301.81 716.921 302.754C716.441 303.527 715.77 303.784 714.81 303.613C711.547 303.098 708.476 302.325 705.596 300.952C704.637 300.523 703.965 300.008 704.445 298.978C704.637 298.463 704.445 298.291 703.773 298.376C702.429 298.549 701.086 298.806 699.646 298.892C693.984 299.493 688.513 299.32 683.331 297.004C681.123 296.059 680.835 296.145 680.739 298.376V299.064C680.931 300.608 681.027 305.845 681.027 306.875ZM684.482 268.418C683.523 268.505 682.755 268.848 682.659 269.878C682.563 271.166 682.371 272.539 682.275 273.826C682.179 274.943 681.891 276.059 681.795 277.26C681.699 280.178 681.699 283.011 681.603 285.93C681.507 287.647 681.219 289.449 681.123 291.166C681.123 291.681 681.315 292.453 681.699 292.626C683.331 293.656 685.058 294.686 686.882 295.372C688.417 295.974 690.145 296.231 691.776 296.489C693.408 296.746 695.135 297.089 696.863 296.917C699.55 296.66 702.237 296.059 704.829 295.544C706.652 295.201 707.708 293.827 708.572 292.453C708.668 292.282 708.284 291.767 708.092 291.681C706.748 291.166 705.308 290.737 703.869 290.308C701.278 289.535 700.606 287.819 702.045 285.673C702.237 285.501 702.525 285.244 702.813 285.244C703.005 285.244 703.389 285.501 703.485 285.759C703.677 286.016 703.677 286.274 703.677 286.616C703.773 287.733 704.253 288.334 705.596 288.505C706.844 288.677 708.188 288.934 709.435 289.363C711.259 289.964 711.163 289.964 712.315 288.677C713.178 287.647 714.234 286.616 715.29 285.759C715.866 285.329 716.729 284.986 717.401 284.986C720.376 284.9 723.255 285.673 726.135 286.531C727.958 287.131 727.958 287.561 726.806 288.934C724.983 290.994 723.351 293.141 721.72 295.286C721.624 295.458 721.528 295.716 721.528 295.887C721.72 295.887 721.912 295.974 722.2 295.974C723.639 295.974 724.983 295.544 726.231 294.857C728.15 293.827 730.166 292.883 731.893 291.681C734.1 290.308 735.54 288.591 735.636 285.93C735.732 282.668 736.308 279.406 736.596 276.144C736.98 272.367 737.364 268.591 737.843 264.814C737.939 263.784 737.46 263.612 736.404 263.698C734.292 263.869 732.181 264.041 730.07 264.213C727.574 264.384 724.983 264.556 722.488 264.814C719.608 265.072 716.729 265.414 713.754 265.672C709.339 266.273 687.361 268.161 684.482 268.418ZM699.55 261.981C703.485 261.551 707.516 261.036 711.355 260.264C717.881 258.891 724.503 258.633 731.221 258.204C731.413 258.204 731.605 258.118 731.701 258.204C734.196 259.148 736.788 260.092 739.283 261.122C739.667 261.294 739.859 262.066 739.763 262.496C739.667 264.985 739.475 267.388 739.283 269.878C738.995 272.796 738.803 275.801 738.323 278.719C738.131 279.921 738.227 280.951 738.707 282.153C739.091 283.269 738.899 284.642 738.611 285.759C737.651 288.677 737.747 291.681 737.939 294.686C738.131 296.746 737.747 298.806 737.651 300.78C737.651 302.068 737.747 303.441 737.747 304.728C737.747 304.986 737.843 305.158 737.939 305.416C738.227 307.132 737.747 307.734 735.828 307.819C732.277 307.991 728.726 308.076 725.175 308.162C723.927 308.249 722.68 308.334 721.336 308.334C720.664 308.334 720.472 308.506 720.664 309.193C721.72 313.055 722.776 316.918 723.831 320.781C724.599 323.613 725.271 326.446 725.943 329.278C726.135 330.137 726.519 330.566 727.67 330.566C729.59 330.652 731.509 330.91 733.333 331.167C734.388 331.253 735.06 331.769 734.868 332.541C734.772 333.399 733.909 334.085 732.949 333.828C731.221 333.399 729.59 333.141 727.766 333.399C727.19 333.485 726.519 333.485 725.943 333.57C724.791 333.828 723.735 333.141 723.543 332.111C723.351 330.738 723.064 329.365 722.872 328.077C722.488 325.588 719.321 313.227 718.457 310.48C718.361 310.051 718.169 309.536 717.977 309.106C717.785 308.849 717.305 308.591 717.017 308.591C714.042 308.935 710.971 309.364 707.996 309.708C705.404 309.965 702.813 310.394 700.222 310.136C697.823 309.879 696.959 311.167 696.287 312.454C694.272 316.146 692.448 319.836 690.433 323.528C689.569 325.073 690.816 326.103 691.488 327.133C692.448 328.592 693.6 329.88 694.943 331.425C695.423 332.026 695.807 332.712 695.039 333.228C694.368 333.656 693.504 333.743 692.928 332.97C691.488 331.167 690.049 329.451 688.609 327.648C688.033 326.961 687.265 326.274 686.978 325.416C686.786 324.901 686.978 324.043 687.265 323.442C688.225 321.725 689.473 320.009 690.529 318.291C691.2 317.176 691.584 316.059 692.256 314.943C693.024 313.57 693.792 312.283 694.463 310.909C694.559 310.738 694.272 310.223 694.176 310.223C692.832 310.223 691.488 310.223 690.049 310.223C687.169 310.309 684.29 310.48 681.507 310.48C680.739 310.48 679.876 309.794 679.3 309.193C677.476 307.132 675.749 305.072 674.021 302.926C673.349 302.153 672.774 301.209 672.198 300.35C672.006 300.093 672.198 299.75 672.198 299.407C672.678 296.66 673.349 293.913 673.541 291.166C674.021 286.016 674.021 280.78 674.597 275.629C674.981 272.024 675.941 268.505 676.612 264.899C676.804 263.955 677.284 263.612 678.34 263.526C681.123 263.44 696.191 262.324 699.55 261.981Z" fill="#181715"/>
<path fill-rule="evenodd" clip-rule="evenodd" d="M112.097 222.323C112.001 222.237 111.905 222.237 111.905 222.152C111.905 221.894 111.905 221.551 111.809 221.293C110.657 218.032 109.506 214.769 108.162 211.593C107.682 210.477 106.53 209.619 105.283 210.22C103.363 211.165 101.252 212.022 99.5244 213.224C98.2768 214.169 96.9331 214.855 95.4935 215.37C94.7258 215.628 94.0539 215.971 93.3821 216.314C89.5432 218.46 85.6083 220.692 81.7694 222.925C81.5774 223.01 81.3855 223.096 81.1935 223.267C80.1378 224.04 80.1378 224.984 81.1935 225.756C81.6734 226.1 82.1532 226.529 82.5371 227.044C84.6486 229.534 86.568 232.023 88.6794 234.512C89.0633 234.941 89.9271 235.285 90.5989 235.285C92.7103 235.199 94.5338 234.255 96.1654 233.053C98.1808 231.594 100.292 230.22 102.404 228.933C105.187 227.216 108.066 225.585 110.849 223.782C111.425 223.44 111.713 222.838 112.097 222.323ZM114.976 222.667C115.072 224.04 114.304 224.555 113.441 224.984C111.521 225.929 109.602 226.786 107.778 227.903C104.227 230.22 100.772 232.71 97.1251 234.941C94.8217 236.315 92.4224 237.431 89.9271 238.633C89.7351 238.719 89.2553 238.633 88.9674 238.461C88.6794 238.375 88.4875 238.031 88.3915 237.774C85.6083 233.397 81.4814 229.877 78.3143 225.756C77.5465 224.726 77.7385 223.267 78.8901 222.581C79.1781 222.41 79.466 222.237 79.6579 222.066C83.3049 219.233 87.5278 217.173 91.5586 214.941C94.9177 213.139 98.1808 211.165 101.636 209.362C103.267 208.503 105.091 207.817 106.818 207.129C107.97 206.614 108.546 207.387 108.834 208.159C109.986 210.65 111.137 213.052 112.193 215.542C113.057 217.43 113.824 219.319 114.496 221.207C114.784 221.894 114.88 222.41 114.976 222.667Z" fill="#181715"/>
<path fill-rule="evenodd" clip-rule="evenodd" d="M328.037 183.267C328.037 183.267 328.133 184.64 328.037 185.241C328.037 186.185 328.517 186.7 329.573 186.872C334.851 187.645 340.13 188.417 345.408 189.275C347.52 189.619 348.863 189.017 349.439 187.215C349.919 185.498 350.015 183.782 350.399 182.064C350.687 180.949 350.207 180.605 349.055 180.434C345.696 180.09 342.337 179.661 338.978 179.318C336.771 179.06 334.563 178.975 332.26 178.803C331.396 178.717 330.436 178.717 329.573 178.803C328.709 178.803 328.229 179.146 328.229 180.004C328.229 181.12 328.037 182.237 328.037 183.267ZM325.926 182.665C325.926 181.292 325.926 180.004 325.926 178.631C325.926 177.687 326.406 177.172 327.461 177C330.82 176.314 334.083 177 337.442 177.257C339.458 177.43 341.569 177.515 343.585 177.773C346.272 178.116 348.959 178.46 351.551 178.975C353.278 179.318 353.374 179.661 352.99 181.207C352.894 181.464 352.798 181.722 352.702 182.064C352.318 183.696 351.934 185.327 351.551 186.872C351.359 187.645 351.263 188.417 351.071 189.104C350.399 191.421 350.399 191.335 347.808 191.078C343.489 190.649 339.17 190.305 334.851 189.876C332.548 189.619 330.34 189.361 328.037 189.017C327.077 188.846 326.022 187.816 326.022 186.872C326.022 185.498 326.022 182.665 325.926 182.665Z" fill="#181715"/>
<path fill-rule="evenodd" clip-rule="evenodd" d="M209.894 221.894C210.854 221.722 211.333 222.152 211.141 223.01C211.045 223.696 210.854 224.384 210.662 225.07V225.585C210.758 225.499 210.949 225.414 211.045 225.327C213.061 223.439 213.061 223.439 215.268 225.156C215.364 225.241 215.46 225.327 215.46 225.327C215.652 225.414 215.94 225.585 216.132 225.671C216.132 225.414 216.324 225.07 216.132 224.899C215.748 224.126 215.268 223.439 214.884 222.752C214.501 222.066 214.501 221.551 215.172 221.036C216.132 220.349 216.9 219.491 217.764 218.718C217.956 218.547 217.956 218.203 218.052 218.032C217.764 218.032 217.572 218.032 217.284 218.117C216.612 218.289 215.94 218.46 215.364 218.718C214.596 219.062 214.309 218.976 214.213 218.117C214.117 217.43 213.733 216.829 213.445 216.229C212.965 216.829 210.758 219.748 209.606 220.177C208.742 220.521 207.974 220.864 207.207 221.293C206.727 221.551 206.727 221.894 207.303 221.894C208.262 221.98 209.126 221.894 209.894 221.894ZM221.794 217.517C220.835 218.632 220.067 219.748 219.011 220.692C218.243 221.379 218.052 221.894 218.339 222.752C218.723 224.297 219.011 225.929 219.203 227.559C219.395 228.675 218.627 229.277 217.476 228.847C216.516 228.504 215.652 227.989 214.788 227.388C213.349 226.444 213.157 226.444 212.005 227.731C211.333 228.504 210.566 229.277 209.894 230.049C209.318 230.649 208.55 230.735 207.878 230.22C207.207 229.792 206.919 229.019 207.398 228.332C207.782 227.817 208.262 227.301 208.55 226.786C209.51 225.07 208.742 223.954 206.631 223.868C205.767 223.868 204.807 223.782 203.943 223.525C202.6 223.181 202.408 221.98 203.56 221.293C204.423 220.692 205.479 220.263 206.535 219.834C209.51 218.804 211.045 216.658 211.909 214.083C212.389 212.624 212.869 212.194 214.021 212.624C214.501 212.795 214.884 213.31 215.172 213.654C215.364 213.825 215.268 214.169 215.268 214.511C215.556 216.744 215.556 216.744 217.86 216.143C218.531 215.971 219.299 215.885 220.067 215.799C221.027 215.885 221.603 216.486 221.794 217.517Z" fill="#181715"/>
<path fill-rule="evenodd" clip-rule="evenodd" d="M188.588 209.104C190.411 208.932 190.507 209.104 190.315 210.65V211.765C190.315 212.022 190.411 212.28 190.507 212.537C190.699 212.366 190.987 212.195 191.179 212.022C192.523 210.563 192.523 210.563 194.442 211.336C194.634 211.422 195.114 211.422 195.21 211.336C195.402 211.165 195.402 210.821 195.306 210.563C195.114 210.048 194.73 209.619 194.538 209.19C193.674 207.473 193.866 207.302 195.786 206.7C196.074 206.614 196.266 206.614 196.554 206.443C196.745 206.357 196.937 206.185 197.129 206.099C196.937 205.928 196.745 205.499 196.554 205.499C195.882 205.499 195.114 205.499 194.442 205.584C193.866 205.67 193.386 206.014 192.907 205.327C192.715 204.898 192.139 204.64 191.755 204.383C191.563 204.812 191.275 205.242 191.083 205.757C190.987 206.099 190.891 207.731 190.123 207.902C189.356 208.074 187.436 208.932 187.244 209.19C187.532 209.276 187.724 209.276 188.012 209.276C188.3 209.19 188.492 209.104 188.588 209.104ZM185.9 210.821C185.709 210.821 185.421 210.821 185.133 210.907C183.885 211.336 183.405 210.563 183.021 209.705C182.637 208.675 183.597 208.503 184.269 208.159C185.709 207.387 187.148 206.614 188.492 205.757C190.123 204.726 190.987 200.349 191.371 199.833C191.947 199.061 192.619 199.147 193.098 199.92C193.386 200.52 193.674 201.121 193.866 201.808C194.346 203.009 195.21 203.61 196.649 203.524C197.897 203.439 199.049 203.181 200.296 203.095C201.16 203.009 201.928 203.095 202.312 203.954C202.696 204.812 202.216 205.327 201.544 205.757C200.296 206.529 199.049 207.387 197.705 208.159C196.937 208.589 196.841 209.104 197.129 209.962C197.705 211.336 197.993 212.881 198.281 214.34C198.377 214.941 197.897 215.113 197.321 214.855C196.65 214.598 195.882 214.34 195.306 213.996C193.003 212.709 192.331 212.795 190.315 215.026C190.027 215.37 189.835 215.799 189.451 216.057C189.164 216.314 188.492 216.486 188.204 216.314C187.916 216.229 187.724 215.628 187.724 215.284C187.724 214.426 187.916 213.567 188.012 212.709C188.108 211.25 187.82 210.907 185.9 210.821Z" fill="#181715"/>
<path fill-rule="evenodd" clip-rule="evenodd" d="M165.074 230.049C165.074 231.164 164.498 231.422 163.731 231.251C163.059 231.079 162.387 230.649 161.715 230.22C160.564 229.534 159.412 228.933 158.26 228.246C157.78 227.989 157.204 227.817 157.012 227.474C156.725 227.044 156.629 226.271 156.917 225.929C157.204 225.585 158.068 225.327 158.452 225.414C160.947 226.186 163.155 227.388 164.786 229.277C164.978 229.619 165.074 229.963 165.074 230.049Z" fill="#181715"/>
<path fill-rule="evenodd" clip-rule="evenodd" d="M141.753 217.945C142.904 218.374 144.056 218.718 145.208 219.233C146.167 219.662 147.127 220.177 147.991 220.692C148.279 220.864 148.663 221.293 148.663 221.637C148.663 222.066 148.471 222.667 148.087 223.01C147.799 223.267 147.031 223.267 146.743 223.096C144.92 222.323 143.192 221.465 141.465 220.521C140.985 220.263 140.505 219.748 140.313 219.319C140.217 219.062 140.793 218.547 141.177 218.203C141.369 218.032 141.657 218.032 141.753 217.945Z" fill="#181715"/>
<path fill-rule="evenodd" clip-rule="evenodd" d="M259.224 217.945C259.512 217.43 259.8 217.002 260.088 216.658C261.048 215.456 262.007 214.169 263.063 213.052C263.639 212.451 264.311 211.851 265.079 211.507C265.462 211.336 266.614 212.451 266.518 212.881C266.422 213.139 266.23 213.31 266.134 213.481C264.599 215.199 263.159 216.915 261.623 218.547C261.336 218.889 260.664 219.233 260.28 219.147C259.896 218.976 259.608 218.374 259.224 217.945Z" fill="#181715"/>
<path fill-rule="evenodd" clip-rule="evenodd" d="M299.053 189.876C297.134 189.962 295.694 190.992 294.158 191.85C293.967 191.936 293.679 192.194 293.487 192.194C293.007 192.194 292.335 192.365 292.143 192.108C291.855 191.85 291.759 191.078 292.047 190.906C292.815 190.048 293.679 189.104 294.734 188.675C295.982 188.073 297.422 187.902 298.861 187.645C299.917 187.301 299.629 189.79 299.053 189.876Z" fill="#181715"/>
<path fill-rule="evenodd" clip-rule="evenodd" d="M128.124 214.426C130.044 214.941 132.059 215.37 133.979 215.885C134.363 215.971 134.939 215.971 134.843 216.915C134.747 217.859 133.979 217.517 133.499 217.688C133.307 217.774 133.019 217.688 132.731 217.688C131.1 217.517 129.468 217.344 127.837 217.087C126.205 216.915 125.725 216.572 125.917 215.628C125.917 214.769 126.301 214.598 128.124 214.426Z" fill="#181715"/>
<path fill-rule="evenodd" clip-rule="evenodd" d="M176.687 242.152C176.591 242.409 176.495 242.924 176.207 243.268C175.631 244.041 174.48 243.869 174.288 243.011C173.808 241.294 172.944 239.749 171.792 238.289C171.313 237.689 171.504 237.001 172.08 236.659C172.464 236.486 173.424 236.486 173.616 236.744C174.768 238.204 175.727 239.834 176.687 241.379V242.152Z" fill="#181715"/>
<path fill-rule="evenodd" clip-rule="evenodd" d="M281.778 200.005C281.586 200.177 281.298 200.606 280.914 200.777C279.091 201.379 277.939 202.666 276.979 204.125C276.595 204.64 276.403 205.327 275.444 204.898C274.58 204.554 274.484 203.868 274.964 203.009C276.115 201.206 277.459 199.49 279.858 198.803C280.914 198.375 281.682 198.803 281.778 200.005Z" fill="#181715"/>
<path fill-rule="evenodd" clip-rule="evenodd" d="M314.505 184.211C313.257 184.64 312.01 184.983 310.762 185.327C310.09 185.498 309.322 185.756 308.65 185.842C308.267 185.927 307.499 185.842 307.403 185.67C307.211 185.327 307.307 184.726 307.499 184.382C307.595 184.039 308.075 183.696 308.458 183.609C310.57 183.181 312.681 182.752 314.793 182.322C314.985 182.322 314.985 184.039 314.505 184.211Z" fill="#181715"/>
<path fill-rule="evenodd" clip-rule="evenodd" d="M523.631 309.364C522.767 309.364 521.903 309.45 521.04 309.364C520.464 309.279 519.888 309.106 519.408 308.764C518.736 308.249 518.928 307.647 519.792 307.476C520.656 307.39 521.615 307.39 522.479 307.39C523.535 307.39 524.495 307.304 524.591 306.016C525.55 304.213 526.03 304.986 526.318 306.102C526.798 307.218 527.278 309.192 523.631 309.364Z" fill="#181715"/>
<path fill-rule="evenodd" clip-rule="evenodd" d="M523.439 292.453C524.591 291.853 525.262 293.055 525.166 293.741C525.07 294.171 524.399 294.857 523.919 294.943C523.151 295.029 522.383 294.6 522.575 293.741C522.671 293.226 522.287 293.055 523.439 292.453Z" fill="#181715"/>
<path fill-rule="evenodd" clip-rule="evenodd" d="M509.331 287.218C509.331 288.419 507.987 288.334 507.507 288.419C506.644 288.505 506.068 287.904 506.26 287.218C506.356 286.703 506.931 286.016 507.411 286.016C508.371 285.844 509.331 286.016 509.331 287.218Z" fill="#181715"/>
<path fill-rule="evenodd" clip-rule="evenodd" d="M599.642 303.698C599.45 304.986 600.026 305.416 602.233 306.102C603.769 306.617 605.304 306.875 606.744 307.39C607.32 307.561 607.991 307.905 608.183 308.249C608.375 308.677 608.375 309.364 608.087 309.794C607.703 310.394 607.128 310.051 606.456 309.879C604.728 309.279 602.905 308.849 601.177 308.334C599.93 307.991 598.778 307.476 597.626 307.046C596.571 306.703 596.475 306.016 596.859 305.158C597.147 304.386 597.53 303.698 597.722 302.926C597.914 302.239 598.298 301.81 599.066 302.068C599.642 302.239 599.834 302.411 599.642 303.698Z" fill="#181715"/>
<path fill-rule="evenodd" clip-rule="evenodd" d="M605.88 295.887C605.688 297.089 604.824 297.004 604.248 297.004C603.289 297.089 603.001 296.231 603.001 295.544C603.001 294.771 603.577 294.171 604.344 294.256C604.92 294.428 606.072 294.6 605.88 295.887Z" fill="#181715"/>
<path fill-rule="evenodd" clip-rule="evenodd" d="M618.069 295.029C618.069 295.029 617.877 296.316 616.533 296.316C615.189 296.316 614.998 294.342 616.533 293.913C618.069 293.656 618.069 295.029 618.069 295.029Z" fill="#181715"/>
<path fill-rule="evenodd" clip-rule="evenodd" d="M183.981 290.994C183.885 290.994 183.789 290.994 183.597 290.994C183.405 291.338 183.117 291.596 183.213 291.938C183.309 292.282 183.693 292.453 183.885 292.797C184.077 292.539 184.461 292.282 184.365 292.111C184.365 291.681 184.173 291.338 183.981 290.994ZM186.86 292.024C186.86 293.398 186.092 294.342 184.941 295.115C182.925 296.489 181.294 294.6 180.91 292.797C180.526 290.908 181.87 289.278 183.885 288.677C184.653 288.419 185.325 288.677 185.613 289.278C186.188 290.136 186.476 291.081 186.86 292.024Z" fill="#181715"/>
<path fill-rule="evenodd" clip-rule="evenodd" d="M195.594 273.311C195.402 273.14 194.634 272.796 194.73 272.539C194.826 271.939 195.21 271.08 195.69 270.908C197.225 270.307 198.857 269.878 200.488 269.535C200.968 269.448 201.928 269.878 202.12 270.307C202.312 270.651 201.832 271.595 201.352 271.766C199.721 272.367 198.089 272.711 196.362 273.226C196.17 273.311 195.978 273.311 195.594 273.311Z" fill="#181715"/>
<path fill-rule="evenodd" clip-rule="evenodd" d="M171.6 277.346C171.6 276.316 172.272 275.973 173.232 275.887C174.192 275.801 174.959 276.488 174.959 277.174C174.959 278.118 174.192 278.719 173.04 278.719C171.792 278.891 171.792 278.033 171.6 277.346Z" fill="#181715"/>
<path fill-rule="evenodd" clip-rule="evenodd" d="M378.615 311.768C378.615 311.682 378.615 311.51 378.711 311.338C379.287 310.051 379.959 308.764 380.535 307.476C380.822 306.961 381.206 306.36 381.974 306.789C382.55 307.132 383.318 307.476 382.838 308.334C381.11 311.338 382.262 311.424 385.621 312.798C386.677 313.227 387.733 313.484 388.692 313.828C389.556 314.171 389.844 314.858 389.652 315.631C389.46 316.317 388.98 316.746 388.116 316.403C387.637 316.231 387.157 315.973 386.677 315.802C384.565 315.116 382.358 314.428 380.247 313.742C379.287 313.313 378.615 312.626 378.615 311.768Z" fill="#181715"/>
<path fill-rule="evenodd" clip-rule="evenodd" d="M386.485 295.029C387.061 295.286 388.02 295.286 387.924 296.316C387.828 297.433 386.965 298.291 386.005 298.205C385.237 298.205 384.373 297.346 384.373 296.574C384.469 295.63 385.333 294.943 386.485 295.029Z" fill="#181715"/>
<path fill-rule="evenodd" clip-rule="evenodd" d="M400.305 295.887C400.401 295.115 400.401 294.171 401.649 294.085C402.512 294.085 403.376 294.943 403.376 295.63C403.376 296.574 402.512 297.433 401.649 297.433C400.497 297.433 400.209 296.746 400.305 295.887Z" fill="#181715"/>
<path fill-rule="evenodd" clip-rule="evenodd" d="M723.351 276.059C723.447 277.089 722.488 277.26 722.104 277.432C721.432 277.603 720.472 276.659 720.664 275.887C720.76 275.458 720.76 275.114 721.624 274.857C722.392 274.685 723.255 275.029 723.351 276.059Z" fill="#181715"/>
<path fill-rule="evenodd" clip-rule="evenodd" d="M706.172 277.174C706.076 278.033 705.02 278.204 704.541 278.29C704.157 278.29 703.869 278.119 703.485 277.347C703.197 276.574 704.157 275.715 704.829 275.801C705.5 275.887 706.268 276.316 706.172 277.174Z" fill="#181715"/>
<path fill-rule="evenodd" clip-rule="evenodd" d="M106.53 221.122C105.955 219.919 105.379 218.889 104.899 217.774C104.515 216.829 104.035 216.744 103.171 217.087C99.7164 218.632 96.1653 220.006 92.7103 221.637C91.0788 222.41 89.6392 223.353 88.1996 224.297C87.6237 224.641 87.1439 225.07 87.6237 225.756C88.7754 227.216 89.9271 228.675 91.1747 230.134C91.6546 230.735 92.3264 230.822 93.0942 230.22C96.1654 227.474 100.004 225.671 103.651 223.611C104.419 223.181 105.187 222.752 105.859 222.152C106.147 221.894 106.243 221.551 106.53 221.122ZM109.794 221.98C109.506 222.237 109.218 222.667 108.738 222.838C105.955 224.469 103.075 226.014 100.292 227.645C97.9888 229.019 95.6855 230.564 93.4781 232.109C91.7506 233.311 90.8868 233.311 89.5432 231.852C87.7197 229.963 85.9922 227.989 84.1687 226.1C83.5928 225.499 83.4969 224.984 84.2646 224.469C86.664 222.838 88.9673 221.122 91.5586 219.577C93.2861 218.547 95.3016 217.945 97.1251 217.087C99.4284 216.057 101.732 214.941 104.035 213.825C104.803 213.481 105.475 213.481 105.859 214.254C107.106 216.572 108.354 218.889 109.506 221.207C109.602 221.465 109.698 221.637 109.794 221.98Z" fill="#181715"/>
<path fill-rule="evenodd" clip-rule="evenodd" d="M331.684 181.378C331.396 181.378 331.396 183.867 331.684 183.953C332.548 184.211 342.721 185.498 344.544 185.498C345.024 185.498 346.08 183.181 345.696 183.094C342.721 182.665 332.644 181.378 331.684 181.378ZM329.573 183.009C329.573 182.837 329.573 182.837 329.573 182.752C329.573 180.004 329.093 179.661 333.124 180.004C335.715 180.262 338.402 180.176 340.993 180.434C343.393 180.691 345.696 181.207 348 181.635C348.767 181.722 349.055 182.064 348.863 182.752C348.479 184.211 348.191 185.756 347.712 187.13C347.616 187.472 346.848 187.902 346.464 187.816C343.777 187.472 341.089 187.13 338.402 186.7C336.003 186.357 333.7 186.013 331.3 185.67C329.381 185.412 329.381 185.412 329.477 183.609C329.573 183.438 329.573 183.181 329.573 183.009Z" fill="#181715"/>
<path fill-rule="evenodd" clip-rule="evenodd" d="M247.323 301.467C245.116 302.668 234.943 305.931 232.256 306.961C229.664 307.905 227.073 309.021 224.578 310.051C223.33 310.565 223.042 310.565 222.85 309.279C222.562 306.617 222.274 303.956 222.082 301.295C221.89 299.235 221.699 267.989 221.411 264.127C221.315 262.839 221.123 261.551 220.835 260.35C220.643 259.32 220.931 258.547 221.89 258.032C222.466 257.688 223.138 257.26 223.81 257.002C226.881 255.629 229.952 254.342 232.927 252.968C235.423 251.852 237.726 250.564 240.221 249.449C246.94 246.186 253.37 242.409 260.472 239.749C263.351 238.633 266.134 237.516 268.917 236.401C270.069 235.971 270.261 235.971 270.261 237.259C270.261 240.178 270.165 246.101 270.069 246.101V254.255C270.069 255.028 270.165 255.801 270.261 256.487C270.357 259.663 270.549 262.754 270.549 265.929C270.645 271.251 270.741 276.574 270.837 281.896C270.837 284.471 270.837 287.046 270.933 289.535C270.933 290.651 270.357 291.252 269.301 291.767C265.654 293.312 262.007 294.943 258.36 296.574C254.617 298.119 250.778 299.493 247.323 301.467ZM220.259 307.647C220.355 308.935 220.259 310.223 220.259 311.51C220.259 312.11 219.971 312.625 219.107 312.454C217.668 312.11 216.132 311.939 214.692 311.51C214.309 311.424 213.925 310.823 213.925 310.48C213.445 307.046 213.061 303.613 212.677 300.179C212.293 297.261 212.677 294.514 214.692 291.853C214.98 291.423 215.172 291.252 215.94 290.222C216.708 289.106 217.284 286.101 215.556 286.016C213.829 285.93 214.117 288.419 213.445 289.707C213.253 290.136 212.773 290.393 212.485 290.737C212.389 290.308 212.101 289.878 212.101 289.449C212.197 286.616 212.389 283.87 212.389 281.037C212.389 276.745 212.101 272.454 212.005 268.247C212.005 266.359 212.197 264.47 212.293 262.581C212.293 261.466 212.293 260.35 212.293 259.32C212.293 258.719 212.485 258.204 213.349 258.461C214.884 258.805 216.612 258.547 217.668 259.835C217.956 260.179 218.435 260.521 218.435 260.951L220.259 307.647ZM209.894 258.547C210.086 261.981 209.51 265.5 209.414 268.933C209.414 273.226 209.606 277.518 209.606 281.81C209.606 283.784 209.414 287.733 209.318 289.707C209.222 291.423 197.225 287.475 196.937 287.218C195.978 286.531 194.922 285.844 193.962 285.071C193.194 284.471 192.523 284.385 191.851 285.071C191.179 285.759 191.371 286.531 192.139 287.046C193.386 287.904 194.538 288.848 195.882 289.363C199.241 290.737 209.414 293.141 209.414 293.141C209.414 293.141 207.878 296.917 208.262 296.66C208.742 296.402 204.615 298.549 202.792 299.493C200.584 300.608 198.473 301.81 196.17 302.926C193.578 304.128 190.795 305.243 188.204 306.446C186.476 307.218 184.749 308.076 183.021 308.935C180.718 310.051 178.415 311.253 176.111 312.454C175.439 312.798 174.576 312.883 173.904 313.227C171.408 314.343 168.721 315.287 166.322 316.661C164.306 317.776 162.867 317.003 161.427 315.973C159.124 314.343 156.821 312.625 154.709 310.738C152.79 309.021 150.966 307.218 149.91 304.986C149.718 304.557 149.718 303.871 149.91 303.356C152.502 296.231 155.189 289.192 157.684 282.067C158.644 279.492 159.124 276.745 159.796 273.999C160.18 272.367 161.139 271.251 162.963 270.565C165.554 269.621 168.049 268.333 170.641 267.303C173.136 266.359 175.727 265.587 178.223 264.728C182.541 263.269 186.86 261.724 191.179 260.264C193.674 259.406 196.266 258.805 198.761 258.118C199.529 257.861 200.2 257.517 200.968 257.26C202.216 256.745 203.368 256.316 204.615 255.801C206.343 255.199 208.07 254.599 209.798 253.998C211.909 253.312 213.925 252.539 216.036 251.852C216.42 251.766 216.804 251.852 217.188 251.852C216.996 252.109 216.804 252.539 216.42 252.71C215.364 253.312 214.213 253.912 213.061 254.342C211.333 255.286 209.798 256.143 209.894 258.547ZM160.563 318.892C158.068 319.836 155.669 320.866 153.174 321.725C149.047 323.184 144.824 324.472 140.601 325.845C140.313 325.931 140.025 325.931 139.737 325.931C139.737 325.673 139.737 325.33 139.833 325.158C140.697 323.613 141.561 322.068 142.425 320.437C143.192 318.978 143.96 317.518 144.632 316.06L148.087 308.591C148.375 307.905 148.759 307.991 149.239 308.506C152.406 311.853 155.861 314.772 159.7 317.433C160.18 317.776 160.468 318.206 160.947 318.549C160.755 318.635 160.755 318.806 160.563 318.892ZM137.722 323.957C137.53 324.3 136.858 324.385 136.666 324.472C133.787 324.128 130.524 321.81 131.771 318.978C133.787 314.686 135.514 310.308 137.434 306.016C139.545 301.295 141.657 296.574 143.768 291.853C145.88 287.218 147.991 282.496 150.39 277.947C152.214 274.599 154.517 271.423 156.437 268.076C157.012 267.131 157.588 267.217 158.26 267.903C159.124 268.676 159.412 269.621 158.932 270.651C158.452 271.681 157.78 272.711 157.492 273.826C155.861 279.321 154.709 284.814 152.406 290.136C151.446 292.282 150.582 294.428 149.718 296.574C149.239 297.948 148.951 299.321 148.567 300.694C148.471 301.038 148.183 301.381 147.991 301.638C147.703 301.381 147.415 301.123 147.223 300.866C146.935 300.437 146.551 300.008 146.359 299.493C146.071 298.72 145.496 298.291 144.632 298.634C143.768 298.978 143.672 299.75 144.056 300.437C144.536 301.295 144.92 302.326 145.592 303.098C147.415 305.072 146.743 307.046 145.688 309.021C143.96 312.368 142.329 315.802 140.601 319.15C139.641 320.78 138.778 322.411 137.722 323.957ZM160.755 265.157C167.186 262.668 173.616 260.264 179.854 257.603C185.709 255.114 191.851 253.225 197.801 250.994C201.736 249.534 205.863 248.504 209.798 247.131C210.758 246.787 211.717 246.444 212.485 245.843C213.349 245.242 214.117 245.5 214.884 245.757C216.228 246.186 217.572 246.701 218.819 247.131C219.203 247.302 219.587 247.474 219.971 247.646C220.163 247.731 220.259 247.904 220.451 247.989C220.259 248.075 220.163 248.246 219.971 248.332C218.435 249.105 216.9 249.964 215.268 250.564C213.541 251.251 211.717 251.766 209.894 252.281C204.711 253.912 199.433 255.372 194.25 257.088C189.068 258.805 183.981 260.607 178.894 262.41C173.808 264.127 168.817 265.844 163.731 267.561C163.443 267.646 163.155 267.732 162.675 267.818C162.003 267.561 161.139 267.303 160.468 266.873C159.22 266.273 159.316 265.672 160.755 265.157ZM219.779 256.058C218.339 256.058 216.804 256.058 215.364 256.058C215.172 256.058 214.884 255.886 214.692 255.801C214.884 255.714 214.98 255.543 215.172 255.457C217.188 254.342 219.203 253.312 221.123 252.195C221.603 251.938 222.082 251.766 222.466 251.509C232.352 245.413 243.005 240.521 254.042 236.315C256.729 235.285 259.32 234.169 262.007 233.139C264.215 232.367 266.614 232.452 268.821 233.225L269.397 233.482C269.205 233.568 269.013 233.654 268.821 233.74C265.174 235.285 261.623 236.744 257.976 238.289C254.617 239.749 251.258 241.379 247.995 243.011C244.732 244.556 241.469 246.186 238.302 247.904C235.999 249.105 233.791 250.393 231.488 251.509C228.897 252.71 226.209 253.654 223.522 254.771L219.779 256.058ZM280.53 311.853C279.858 310.738 279.283 309.621 278.611 308.591C278.419 308.249 278.131 307.819 277.843 307.561C277.267 306.961 276.691 306.789 276.019 307.476C275.348 308.076 265.174 312.454 261.048 314.257C258.936 315.201 258.456 315.029 258.264 312.883C258.264 312.798 258.264 312.798 258.264 312.712C257.785 308.677 257.401 304.643 256.825 300.694C256.633 299.578 257.209 299.149 258.168 298.806C259.32 298.376 260.568 297.948 261.719 297.519C264.887 296.231 267.958 294.857 271.125 293.656C273.044 292.968 273.716 292.111 273.428 290.222C273.332 289.878 273.428 289.449 273.428 289.106C273.428 286.016 273.332 282.926 273.332 279.836C273.236 275.029 272.852 237.174 272.948 234.341H273.044C273.044 233.826 272.948 233.397 272.948 232.882C272.948 232.194 272.66 231.852 271.893 231.679C269.493 231.079 266.998 230.307 264.599 229.705C264.119 229.619 263.543 229.705 263.063 229.877C261.048 230.822 259.032 231.766 257.017 232.71C254.138 233.997 251.258 235.371 248.283 236.572C244.444 238.204 240.413 239.663 236.67 241.465C232.927 243.182 229.28 245.242 225.633 247.131C225.346 247.302 224.77 247.302 224.77 247.302C223.906 245.671 222.082 245.586 220.451 245.242C218.915 244.899 217.188 244.727 215.844 244.041C214.405 243.268 213.253 243.439 212.005 244.041C207.974 245.757 203.943 247.388 199.721 248.676C194.442 250.306 189.26 252.281 184.077 254.169C180.046 255.629 176.015 257.26 171.984 258.719C167.474 260.436 162.867 261.895 158.452 263.698C156.341 264.556 154.613 266.102 153.941 268.333C153.749 268.933 153.461 269.448 153.174 270.05C151.254 273.226 149.143 276.23 147.511 279.492C144.728 285.071 142.233 290.737 139.641 296.316C138.586 298.463 137.53 300.694 136.57 302.841C134.747 306.789 133.019 310.823 131.292 314.772C130.332 316.832 129.468 318.892 128.7 321.039C128.316 322.068 128.796 322.755 129.66 323.355C131.675 324.729 133.499 326.361 135.61 327.648C136.666 328.248 138.202 328.936 139.257 328.678C142.233 328.077 145.112 327.133 147.991 326.103C150.486 325.244 152.886 324.214 155.285 323.27L156.149 323.013C155.957 323.27 155.861 323.528 155.669 323.699C153.365 326.361 150.87 329.021 148.663 331.768C147.511 333.141 146.455 334.429 144.824 335.288C143.672 335.888 143.672 336.747 144.248 337.605C145.88 339.923 147.415 342.326 148.951 344.73C149.91 346.275 150.678 347.992 151.446 349.623C151.83 350.481 152.598 350.567 153.365 350.396C153.557 350.396 153.653 349.365 153.461 348.936C152.694 347.048 151.83 345.245 150.87 343.442C149.91 341.64 148.855 339.923 147.703 338.12C147.031 337.09 147.223 336.318 148.087 335.373C150.102 333.228 151.926 330.91 153.845 328.763C155.957 326.361 157.972 323.957 160.18 321.553C161.331 320.266 163.539 319.836 165.17 320.524C166.898 321.21 168.529 321.896 170.257 322.583C170.929 322.926 171.696 323.184 172.272 323.699C172.944 324.214 173.712 324.214 174.288 323.785C174.672 323.528 175.055 322.84 174.959 322.498C174.768 321.983 174.192 321.553 173.616 321.295C171.792 320.524 169.969 319.836 168.145 319.15C167.186 318.806 167.57 318.377 168.145 318.12C170.929 316.918 173.808 315.631 176.591 314.514C176.879 314.428 177.455 314.514 177.551 314.686C178.798 316.918 180.142 319.064 181.006 321.468C182.541 325.845 184.557 330.051 186.956 334.085C187.628 335.202 188.3 336.403 188.78 337.605C189.26 339.064 189.739 339.493 191.467 339.666C194.538 339.837 197.609 340.008 200.68 340.266C201.832 340.352 202.504 339.923 202.504 339.064C202.6 337.948 201.64 337.948 200.872 337.948C199.529 337.863 198.185 337.948 196.937 337.863C193.962 337.605 190.699 337.433 189.739 334.085C189.739 334 189.643 333.914 189.547 333.828C188.204 331.253 186.284 329.107 185.325 326.361C183.789 322.325 181.87 318.377 180.142 314.428C179.758 313.57 179.854 313.055 180.718 312.626C183.117 311.51 185.421 310.48 187.82 309.364C191.755 307.561 195.786 305.758 199.721 303.871C202.12 302.754 204.423 301.638 206.727 300.523C206.919 300.437 207.207 300.437 207.494 300.437C207.494 300.608 207.494 300.866 207.399 301.038C206.727 302.754 206.055 304.557 205.191 306.274C203.847 308.849 202.504 311.338 200.968 313.828C200.2 315.116 199.145 316.146 198.377 317.433C198.089 317.948 198.089 318.721 198.281 319.321C198.377 319.579 199.145 319.751 199.625 319.751C200.584 319.836 200.68 319.15 200.968 318.549C201.544 317.433 202.12 316.317 202.696 315.201C204.327 312.197 205.959 309.193 207.494 306.188C208.358 304.471 209.03 302.754 209.798 301.038C209.894 300.78 210.182 300.608 210.374 300.437C210.47 300.694 210.662 300.866 210.662 301.123C211.141 304.815 211.621 308.506 212.005 312.197C212.197 313.656 212.293 313.828 213.829 313.999C216.42 314.343 218.915 314.772 221.507 315.116C221.986 315.201 225.825 312.197 227.553 311.253C227.649 311.167 227.745 311.167 227.841 311.08C230.72 309.45 233.983 308.334 237.15 307.046C238.206 306.617 238.878 306.961 238.878 308.076C238.782 309.536 238.686 310.995 238.494 312.454C237.918 316.661 237.246 320.952 236.67 325.158C236.191 328.85 236.191 328.85 232.16 328.077C231.392 327.906 230.528 327.733 229.856 327.906C229.376 328.077 228.993 328.763 228.801 329.278C228.705 329.451 229.568 329.966 229.952 330.051C232.352 330.395 234.751 330.481 237.054 330.824C238.302 330.996 238.686 330.652 238.782 329.451C239.07 325.502 239.55 321.468 240.029 317.518C240.413 314.514 240.797 311.51 241.181 308.42C241.277 307.647 241.181 306.617 241.661 306.102C242.045 305.587 243.197 305.673 243.964 305.416C244.156 305.416 244.252 305.33 244.444 305.243C247.899 304.128 251.354 302.841 254.329 300.78C254.905 300.35 255.097 300.694 255.097 301.123C255.193 301.81 255.097 302.411 255.193 303.098C255.577 305.931 255.961 308.764 256.345 311.595C256.633 313.57 256.729 315.458 257.017 317.433C257.113 318.034 258.264 318.206 259.896 318.12C261.527 318.034 273.044 311.253 275.06 310.48C276.691 309.879 277.171 309.965 277.939 311.424C278.227 311.853 278.419 312.368 278.707 312.883C279.091 313.828 280.146 314.343 280.914 313.999C281.01 313.742 281.106 312.798 280.53 311.853Z" fill="#181715"/>
<path d="M469.615 76.2895H466.504V87.7856H463.129V62.1918H466.504V73.477H469.141L478.088 62.1918H482.289L472.516 74.602L483.01 87.7856H478.879L469.615 76.2895ZM484.24 78.1C484.24 76.2368 484.604 74.561 485.33 73.0727C486.068 71.5844 487.088 70.436 488.389 69.6274C489.701 68.8188 491.195 68.4145 492.871 68.4145C495.461 68.4145 497.553 69.311 499.146 71.1039C500.752 72.8969 501.555 75.2817 501.555 78.2582V78.4868C501.555 80.3383 501.197 82.0024 500.482 83.4789C499.779 84.9438 498.766 86.0864 497.441 86.9067C496.129 87.727 494.617 88.1371 492.906 88.1371C490.328 88.1371 488.236 87.2407 486.631 85.4477C485.037 83.6547 484.24 81.2817 484.24 78.3286V78.1ZM487.51 78.4868C487.51 80.5961 487.996 82.2895 488.969 83.5668C489.953 84.8442 491.266 85.4828 492.906 85.4828C494.559 85.4828 495.871 84.8383 496.844 83.5493C497.816 82.2485 498.303 80.4321 498.303 78.1C498.303 76.0141 497.805 74.3266 496.809 73.0375C495.824 71.7368 494.512 71.0864 492.871 71.0864C491.266 71.0864 489.971 71.725 488.986 73.0024C488.002 74.2797 487.51 76.1078 487.51 78.4868ZM516.584 83.4789L523.053 68.7661H527.113V87.7856H523.861V73.9516L517.709 87.7856H515.459L509.184 73.6528V87.7856H505.932V68.7661H510.15L516.584 83.4789ZM538.574 83.0219L543.004 68.7661H546.484L538.838 90.7211C537.654 93.8852 535.773 95.4672 533.195 95.4672L532.58 95.4145L531.367 95.186V92.5493L532.246 92.6196C533.348 92.6196 534.203 92.3969 534.812 91.9516C535.434 91.5063 535.943 90.6918 536.342 89.5082L537.062 87.5746L530.277 68.7661H533.828L538.574 83.0219ZM565.961 85.4828C567.121 85.4828 568.135 85.1313 569.002 84.4282C569.869 83.725 570.35 82.8461 570.443 81.7914H573.52C573.461 82.8813 573.086 83.9184 572.395 84.9028C571.703 85.8871 570.777 86.6723 569.617 87.2582C568.469 87.8442 567.25 88.1371 565.961 88.1371C563.371 88.1371 561.309 87.2758 559.773 85.5532C558.25 83.8188 557.488 81.4516 557.488 78.4516V77.9067C557.488 76.0551 557.828 74.4086 558.508 72.9672C559.188 71.5258 560.16 70.4067 561.426 69.6098C562.703 68.8129 564.209 68.4145 565.943 68.4145C568.076 68.4145 569.846 69.0532 571.252 70.3305C572.67 71.6078 573.426 73.2661 573.52 75.3051H570.443C570.35 74.0746 569.881 73.0668 569.037 72.2817C568.205 71.4848 567.174 71.0864 565.943 71.0864C564.291 71.0864 563.008 71.684 562.094 72.8793C561.191 74.0629 560.74 75.7797 560.74 78.0297V78.645C560.74 80.8364 561.191 82.5239 562.094 83.7075C562.996 84.8911 564.285 85.4828 565.961 85.4828ZM580.727 76.8344H585.297C585.543 74.3032 586.439 72.27 587.986 70.7348C589.545 69.1879 591.508 68.4145 593.875 68.4145C596.359 68.4145 598.393 69.2524 599.975 70.9282C601.557 72.6039 602.412 74.7836 602.541 77.4672L602.559 78.4868C602.559 80.3383 602.195 82.0082 601.469 83.4965C600.742 84.9848 599.723 86.1332 598.41 86.9418C597.098 87.7387 595.598 88.1371 593.91 88.1371C591.461 88.1371 589.457 87.3403 587.898 85.7465C586.34 84.1411 585.467 82.061 585.279 79.5063H580.727V87.7856H577.475V68.7661H580.727V76.8344ZM588.496 78.4868C588.496 80.5961 588.982 82.2895 589.955 83.5668C590.939 84.8442 592.258 85.4828 593.91 85.4828C595.562 85.4828 596.869 84.8325 597.83 83.5317C598.803 82.2309 599.289 80.4203 599.289 78.1C599.289 76.0258 598.797 74.3383 597.812 73.0375C596.828 71.7368 595.516 71.0864 593.875 71.0864C592.258 71.0864 590.957 71.725 589.973 73.0024C588.988 74.2797 588.496 76.1078 588.496 78.4868ZM621.455 79.5239H619.17V87.7856H615.918V79.5239H613.633L608.307 87.7856H604.193L610.996 77.9418L604.844 68.7661H608.781L613.686 76.6411H615.918V68.7661H619.17V76.6411H621.385L626.324 68.7661H630.262L624.092 77.9594L630.895 87.7856H626.781L621.455 79.5239ZM641.389 88.1371C638.811 88.1371 636.713 87.2934 635.096 85.6059C633.479 83.9067 632.67 81.6391 632.67 78.8032V78.2055C632.67 76.3188 633.027 74.6371 633.742 73.1606C634.469 71.6723 635.477 70.5121 636.766 69.6801C638.066 68.8364 639.473 68.4145 640.984 68.4145C643.457 68.4145 645.379 69.2289 646.75 70.8578C648.121 72.4868 648.807 74.8188 648.807 77.8539V79.2075H635.922C635.969 81.0825 636.514 82.6 637.557 83.7602C638.611 84.9086 639.947 85.4828 641.564 85.4828C642.713 85.4828 643.686 85.2485 644.482 84.7797C645.279 84.311 645.977 83.6899 646.574 82.9164L648.561 84.4633C646.967 86.9125 644.576 88.1371 641.389 88.1371ZM640.984 71.0864C639.672 71.0864 638.57 71.5668 637.68 72.5278C636.789 73.477 636.238 74.8129 636.027 76.5356H645.555V76.2895C645.461 74.6371 645.016 73.3598 644.219 72.4575C643.422 71.5434 642.344 71.0864 640.984 71.0864ZM666.508 71.4028H660.127V87.7856H656.875V71.4028H650.617V68.7661H666.508V71.4028ZM462.303 127.131L463.428 125.743C464.693 124.102 465.414 121.641 465.59 118.36L465.889 110.766H478.141V127.131H480.584V135.375H477.332V129.786H464.061V135.375H460.809L460.826 127.131H462.303ZM466.152 127.131H474.889V113.772H469.035L468.842 118.307C468.643 122.092 467.746 125.034 466.152 127.131ZM499.779 110.766V129.786H496.51V113.456H490.041L489.654 120.575C489.443 123.844 488.893 126.182 488.002 127.588C487.123 128.995 485.723 129.727 483.801 129.786H482.5V126.92L483.432 126.85C484.486 126.733 485.242 126.123 485.699 125.022C486.156 123.92 486.449 121.881 486.578 118.905L486.93 110.766H499.779ZM519.537 110.766V129.786H516.268V122.385H511.363L506.881 129.786H503.365L508.146 121.893C506.928 121.448 505.99 120.762 505.334 119.836C504.689 118.899 504.367 117.809 504.367 116.567C504.367 114.832 505.018 113.438 506.318 112.383C507.619 111.317 509.359 110.778 511.539 110.766H519.537ZM507.637 116.602C507.637 117.528 507.953 118.278 508.586 118.852C509.219 119.414 510.057 119.702 511.1 119.713H516.268V113.403H511.592C510.385 113.403 509.424 113.702 508.709 114.299C507.994 114.885 507.637 115.653 507.637 116.602ZM532.984 120.627C532.984 117.452 533.6 114.956 534.83 113.139C536.061 111.323 537.748 110.414 539.893 110.414C540.889 110.414 541.762 110.584 542.512 110.924V102.786H545.764V111.03C546.584 110.62 547.545 110.414 548.646 110.414C550.803 110.414 552.496 111.323 553.727 113.139C554.957 114.956 555.572 117.575 555.572 120.997C555.572 123.797 554.957 126.024 553.727 127.676C552.508 129.329 550.826 130.155 548.682 130.155C547.545 130.155 546.572 129.967 545.764 129.592V137.098H542.512V129.645C541.738 129.985 540.854 130.155 539.857 130.155C537.725 130.155 536.043 129.329 534.812 127.676C533.594 126.024 532.984 123.762 532.984 120.891V120.627ZM552.32 120.627C552.32 118.237 551.91 116.385 551.09 115.073C550.27 113.748 549.139 113.086 547.697 113.086C546.959 113.086 546.314 113.204 545.764 113.438V127.202C546.291 127.401 546.947 127.5 547.732 127.5C549.186 127.5 550.311 126.938 551.107 125.813C551.916 124.688 552.32 122.959 552.32 120.627ZM536.236 120.997C536.236 123.129 536.617 124.747 537.379 125.848C538.141 126.95 539.236 127.5 540.666 127.5C541.346 127.5 541.961 127.395 542.512 127.184V113.385C542.02 113.186 541.416 113.086 540.701 113.086C539.271 113.086 538.17 113.725 537.396 115.002C536.623 116.28 536.236 118.278 536.236 120.997ZM572.113 110.766H575.365V129.786H572.113V115.916L563.342 129.786H560.09V110.766H563.342V124.653L572.113 110.766ZM596.178 110.766V129.786H592.908V113.456H586.439L586.053 120.575C585.842 123.844 585.291 126.182 584.4 127.588C583.521 128.995 582.121 129.727 580.199 129.786H578.898V126.92L579.83 126.85C580.885 126.733 581.641 126.123 582.098 125.022C582.555 123.92 582.848 121.881 582.977 118.905L583.328 110.766H596.178ZM604.949 117.323H609.889C612.045 117.346 613.75 117.909 615.004 119.01C616.258 120.112 616.885 121.606 616.885 123.493C616.885 125.391 616.24 126.914 614.951 128.063C613.662 129.211 611.928 129.786 609.748 129.786H601.697V110.766H604.949V117.323ZM604.949 119.977V127.131H609.783C611.002 127.131 611.945 126.821 612.613 126.2C613.281 125.567 613.615 124.706 613.615 123.616C613.615 122.561 613.287 121.7 612.631 121.032C611.986 120.352 611.078 120 609.906 119.977H604.949ZM631.896 125.479L638.365 110.766H642.426V129.786H639.174V115.952L633.021 129.786H630.771L624.496 115.653V129.786H621.244V110.766H625.463L631.896 125.479ZM659.406 129.786C659.219 129.411 659.066 128.743 658.949 127.782C657.438 129.352 655.633 130.137 653.535 130.137C651.66 130.137 650.119 129.61 648.912 128.555C647.717 127.489 647.119 126.141 647.119 124.512C647.119 122.532 647.869 120.997 649.369 119.907C650.881 118.805 653.002 118.254 655.732 118.254H658.896V116.76C658.896 115.623 658.557 114.721 657.877 114.053C657.197 113.373 656.195 113.034 654.871 113.034C653.711 113.034 652.738 113.327 651.953 113.913C651.168 114.498 650.775 115.207 650.775 116.039H647.506C647.506 115.09 647.84 114.176 648.508 113.297C649.188 112.407 650.102 111.704 651.25 111.188C652.41 110.672 653.682 110.414 655.064 110.414C657.256 110.414 658.973 110.965 660.215 112.067C661.457 113.157 662.102 114.663 662.148 116.584V125.338C662.148 127.084 662.371 128.473 662.816 129.504V129.786H659.406ZM654.01 127.307C655.029 127.307 655.996 127.043 656.91 126.516C657.824 125.989 658.486 125.303 658.896 124.459V120.557H656.348C652.363 120.557 650.371 121.723 650.371 124.055C650.371 125.075 650.711 125.872 651.391 126.446C652.07 127.02 652.943 127.307 654.01 127.307ZM671.061 122.579C671.084 121.184 671.242 120.082 671.535 119.274C671.828 118.465 672.426 117.569 673.328 116.584L675.631 114.211C676.615 113.098 677.107 111.903 677.107 110.625C677.107 109.395 676.785 108.434 676.141 107.743C675.496 107.039 674.559 106.688 673.328 106.688C672.133 106.688 671.172 107.004 670.445 107.637C669.719 108.27 669.355 109.12 669.355 110.186H666.104C666.127 108.288 666.801 106.758 668.125 105.598C669.461 104.426 671.195 103.84 673.328 103.84C675.543 103.84 677.266 104.438 678.496 105.633C679.738 106.817 680.359 108.446 680.359 110.52C680.359 112.571 679.41 114.592 677.512 116.584L675.596 118.483C674.74 119.432 674.312 120.797 674.312 122.579H671.061ZM670.92 128.151C670.92 127.623 671.078 127.184 671.395 126.832C671.723 126.469 672.203 126.288 672.836 126.288C673.469 126.288 673.949 126.469 674.277 126.832C674.605 127.184 674.77 127.623 674.77 128.151C674.77 128.678 674.605 129.118 674.277 129.469C673.949 129.809 673.469 129.979 672.836 129.979C672.203 129.979 671.723 129.809 671.395 129.469C671.078 129.118 670.92 128.678 670.92 128.151Z" fill="black"/>
</svg>
